<mxfile host="Electron" modified="2023-12-10T17:17:39.284Z" agent="Mozilla/5.0 (Windows NT 10.0; Win64; x64) AppleWebKit/537.36 (KHTML, like Gecko) draw.io/22.1.2 Chrome/114.0.5735.289 Electron/25.9.4 Safari/537.36" etag="REZSxHTl9M_jEBg4oyal" version="22.1.2" type="device">
  <diagram id="C5RBs43oDa-KdzZeNtuy" name="Page-1">
    <mxGraphModel dx="1104" dy="556" grid="1" gridSize="10" guides="1" tooltips="1" connect="1" arrows="1" fold="1" page="1" pageScale="1" pageWidth="827" pageHeight="1169" math="0" shadow="0">
      <root>
        <mxCell id="WIyWlLk6GJQsqaUBKTNV-0" />
        <mxCell id="WIyWlLk6GJQsqaUBKTNV-1" parent="WIyWlLk6GJQsqaUBKTNV-0" />
        <mxCell id="YFdR8iEKosqjMmH9CL03-3" style="edgeStyle=orthogonalEdgeStyle;rounded=0;orthogonalLoop=1;jettySize=auto;html=1;exitX=0.5;exitY=1;exitDx=0;exitDy=0;entryX=0.5;entryY=0;entryDx=0;entryDy=0;" edge="1" parent="WIyWlLk6GJQsqaUBKTNV-1" source="WIyWlLk6GJQsqaUBKTNV-3" target="YFdR8iEKosqjMmH9CL03-2">
          <mxGeometry relative="1" as="geometry" />
        </mxCell>
        <mxCell id="WIyWlLk6GJQsqaUBKTNV-3" value="Initiate Program Counter" style="rounded=1;whiteSpace=wrap;html=1;fontSize=12;glass=0;strokeWidth=1;shadow=0;" parent="WIyWlLk6GJQsqaUBKTNV-1" vertex="1">
          <mxGeometry x="397" y="110" width="120" height="40" as="geometry" />
        </mxCell>
        <mxCell id="YFdR8iEKosqjMmH9CL03-5" style="edgeStyle=orthogonalEdgeStyle;rounded=0;orthogonalLoop=1;jettySize=auto;html=1;exitX=1;exitY=0.5;exitDx=0;exitDy=0;entryX=0;entryY=0.5;entryDx=0;entryDy=0;" edge="1" parent="WIyWlLk6GJQsqaUBKTNV-1" source="WIyWlLk6GJQsqaUBKTNV-6" target="YFdR8iEKosqjMmH9CL03-4">
          <mxGeometry relative="1" as="geometry" />
        </mxCell>
        <mxCell id="YFdR8iEKosqjMmH9CL03-6" value="R-type" style="edgeLabel;html=1;align=center;verticalAlign=middle;resizable=0;points=[];" vertex="1" connectable="0" parent="YFdR8iEKosqjMmH9CL03-5">
          <mxGeometry x="-0.1111" y="-1" relative="1" as="geometry">
            <mxPoint as="offset" />
          </mxGeometry>
        </mxCell>
        <mxCell id="YFdR8iEKosqjMmH9CL03-8" style="edgeStyle=orthogonalEdgeStyle;rounded=0;orthogonalLoop=1;jettySize=auto;html=1;exitX=0;exitY=0.5;exitDx=0;exitDy=0;entryX=1;entryY=0.5;entryDx=0;entryDy=0;" edge="1" parent="WIyWlLk6GJQsqaUBKTNV-1" source="WIyWlLk6GJQsqaUBKTNV-6" target="YFdR8iEKosqjMmH9CL03-7">
          <mxGeometry relative="1" as="geometry" />
        </mxCell>
        <mxCell id="YFdR8iEKosqjMmH9CL03-9" value="I-Type" style="edgeLabel;html=1;align=center;verticalAlign=middle;resizable=0;points=[];" vertex="1" connectable="0" parent="YFdR8iEKosqjMmH9CL03-8">
          <mxGeometry x="-0.3" y="2" relative="1" as="geometry">
            <mxPoint as="offset" />
          </mxGeometry>
        </mxCell>
        <mxCell id="YFdR8iEKosqjMmH9CL03-10" style="edgeStyle=orthogonalEdgeStyle;rounded=0;orthogonalLoop=1;jettySize=auto;html=1;exitX=0.5;exitY=1;exitDx=0;exitDy=0;entryX=0.5;entryY=0;entryDx=0;entryDy=0;" edge="1" parent="WIyWlLk6GJQsqaUBKTNV-1" source="WIyWlLk6GJQsqaUBKTNV-6" target="WIyWlLk6GJQsqaUBKTNV-10">
          <mxGeometry relative="1" as="geometry" />
        </mxCell>
        <mxCell id="YFdR8iEKosqjMmH9CL03-11" value="J-Type" style="edgeLabel;html=1;align=center;verticalAlign=middle;resizable=0;points=[];" vertex="1" connectable="0" parent="YFdR8iEKosqjMmH9CL03-10">
          <mxGeometry x="-0.45" relative="1" as="geometry">
            <mxPoint as="offset" />
          </mxGeometry>
        </mxCell>
        <mxCell id="WIyWlLk6GJQsqaUBKTNV-6" value="Test for Instruction type" style="rhombus;whiteSpace=wrap;html=1;shadow=0;fontFamily=Helvetica;fontSize=12;align=center;strokeWidth=1;spacing=6;spacingTop=-4;" parent="WIyWlLk6GJQsqaUBKTNV-1" vertex="1">
          <mxGeometry x="407" y="230" width="100" height="80" as="geometry" />
        </mxCell>
        <mxCell id="YFdR8iEKosqjMmH9CL03-22" style="edgeStyle=orthogonalEdgeStyle;rounded=0;orthogonalLoop=1;jettySize=auto;html=1;exitX=1;exitY=0.5;exitDx=0;exitDy=0;" edge="1" parent="WIyWlLk6GJQsqaUBKTNV-1" source="WIyWlLk6GJQsqaUBKTNV-10" target="YFdR8iEKosqjMmH9CL03-21">
          <mxGeometry relative="1" as="geometry" />
        </mxCell>
        <mxCell id="YFdR8iEKosqjMmH9CL03-51" value="No" style="edgeLabel;html=1;align=center;verticalAlign=middle;resizable=0;points=[];" vertex="1" connectable="0" parent="YFdR8iEKosqjMmH9CL03-22">
          <mxGeometry x="-0.3" y="1" relative="1" as="geometry">
            <mxPoint as="offset" />
          </mxGeometry>
        </mxCell>
        <mxCell id="YFdR8iEKosqjMmH9CL03-28" style="edgeStyle=orthogonalEdgeStyle;rounded=0;orthogonalLoop=1;jettySize=auto;html=1;exitX=0.5;exitY=1;exitDx=0;exitDy=0;entryX=0.5;entryY=0;entryDx=0;entryDy=0;" edge="1" parent="WIyWlLk6GJQsqaUBKTNV-1" source="WIyWlLk6GJQsqaUBKTNV-10" target="WIyWlLk6GJQsqaUBKTNV-11">
          <mxGeometry relative="1" as="geometry" />
        </mxCell>
        <mxCell id="YFdR8iEKosqjMmH9CL03-29" value="Requests Address" style="edgeLabel;html=1;align=center;verticalAlign=middle;resizable=0;points=[];" vertex="1" connectable="0" parent="YFdR8iEKosqjMmH9CL03-28">
          <mxGeometry x="-0.2" y="-2" relative="1" as="geometry">
            <mxPoint as="offset" />
          </mxGeometry>
        </mxCell>
        <mxCell id="WIyWlLk6GJQsqaUBKTNV-10" value="Test If Rs provided" style="rhombus;whiteSpace=wrap;html=1;shadow=0;fontFamily=Helvetica;fontSize=12;align=center;strokeWidth=1;spacing=6;spacingTop=-4;" parent="WIyWlLk6GJQsqaUBKTNV-1" vertex="1">
          <mxGeometry x="407" y="350" width="100" height="80" as="geometry" />
        </mxCell>
        <mxCell id="YFdR8iEKosqjMmH9CL03-46" style="edgeStyle=orthogonalEdgeStyle;rounded=0;orthogonalLoop=1;jettySize=auto;html=1;exitX=0.5;exitY=1;exitDx=0;exitDy=0;" edge="1" parent="WIyWlLk6GJQsqaUBKTNV-1" source="WIyWlLk6GJQsqaUBKTNV-11" target="YFdR8iEKosqjMmH9CL03-42">
          <mxGeometry relative="1" as="geometry" />
        </mxCell>
        <mxCell id="YFdR8iEKosqjMmH9CL03-47" value="Requested Data" style="edgeLabel;html=1;align=center;verticalAlign=middle;resizable=0;points=[];" vertex="1" connectable="0" parent="YFdR8iEKosqjMmH9CL03-46">
          <mxGeometry x="-0.3852" y="2" relative="1" as="geometry">
            <mxPoint as="offset" />
          </mxGeometry>
        </mxCell>
        <mxCell id="WIyWlLk6GJQsqaUBKTNV-11" value="Register File" style="rounded=1;whiteSpace=wrap;html=1;fontSize=12;glass=0;strokeWidth=1;shadow=0;" parent="WIyWlLk6GJQsqaUBKTNV-1" vertex="1">
          <mxGeometry x="117" y="480" width="120" height="40" as="geometry" />
        </mxCell>
        <mxCell id="WIyWlLk6GJQsqaUBKTNV-12" value="Show Syntax Error" style="rounded=1;whiteSpace=wrap;html=1;fontSize=12;glass=0;strokeWidth=1;shadow=0;" parent="WIyWlLk6GJQsqaUBKTNV-1" vertex="1">
          <mxGeometry x="87" y="300" width="120" height="40" as="geometry" />
        </mxCell>
        <mxCell id="YFdR8iEKosqjMmH9CL03-1" style="edgeStyle=orthogonalEdgeStyle;rounded=0;orthogonalLoop=1;jettySize=auto;html=1;exitX=0.5;exitY=1;exitDx=0;exitDy=0;entryX=0.5;entryY=0;entryDx=0;entryDy=0;" edge="1" parent="WIyWlLk6GJQsqaUBKTNV-1" source="YFdR8iEKosqjMmH9CL03-0" target="WIyWlLk6GJQsqaUBKTNV-3">
          <mxGeometry relative="1" as="geometry" />
        </mxCell>
        <mxCell id="YFdR8iEKosqjMmH9CL03-0" value="Start System" style="rounded=0;whiteSpace=wrap;html=1;" vertex="1" parent="WIyWlLk6GJQsqaUBKTNV-1">
          <mxGeometry x="397" y="30" width="120" height="60" as="geometry" />
        </mxCell>
        <mxCell id="YFdR8iEKosqjMmH9CL03-12" style="edgeStyle=orthogonalEdgeStyle;rounded=0;orthogonalLoop=1;jettySize=auto;html=1;exitX=0.5;exitY=1;exitDx=0;exitDy=0;entryX=0.5;entryY=0;entryDx=0;entryDy=0;" edge="1" parent="WIyWlLk6GJQsqaUBKTNV-1" source="YFdR8iEKosqjMmH9CL03-2" target="WIyWlLk6GJQsqaUBKTNV-6">
          <mxGeometry relative="1" as="geometry" />
        </mxCell>
        <mxCell id="YFdR8iEKosqjMmH9CL03-2" value="Instruction Fetch And Decode" style="rounded=1;whiteSpace=wrap;html=1;fontSize=12;glass=0;strokeWidth=1;shadow=0;" vertex="1" parent="WIyWlLk6GJQsqaUBKTNV-1">
          <mxGeometry x="397" y="170" width="120" height="40" as="geometry" />
        </mxCell>
        <mxCell id="YFdR8iEKosqjMmH9CL03-16" style="edgeStyle=orthogonalEdgeStyle;rounded=0;orthogonalLoop=1;jettySize=auto;html=1;exitX=1;exitY=0.5;exitDx=0;exitDy=0;entryX=0;entryY=0.5;entryDx=0;entryDy=0;" edge="1" parent="WIyWlLk6GJQsqaUBKTNV-1" source="YFdR8iEKosqjMmH9CL03-4" target="YFdR8iEKosqjMmH9CL03-15">
          <mxGeometry relative="1" as="geometry" />
        </mxCell>
        <mxCell id="YFdR8iEKosqjMmH9CL03-17" value="No" style="edgeLabel;html=1;align=center;verticalAlign=middle;resizable=0;points=[];" vertex="1" connectable="0" parent="YFdR8iEKosqjMmH9CL03-16">
          <mxGeometry y="2" relative="1" as="geometry">
            <mxPoint as="offset" />
          </mxGeometry>
        </mxCell>
        <mxCell id="YFdR8iEKosqjMmH9CL03-25" style="edgeStyle=orthogonalEdgeStyle;rounded=0;orthogonalLoop=1;jettySize=auto;html=1;exitX=0.5;exitY=1;exitDx=0;exitDy=0;entryX=1;entryY=0.5;entryDx=0;entryDy=0;" edge="1" parent="WIyWlLk6GJQsqaUBKTNV-1" source="YFdR8iEKosqjMmH9CL03-4" target="WIyWlLk6GJQsqaUBKTNV-11">
          <mxGeometry relative="1" as="geometry" />
        </mxCell>
        <mxCell id="YFdR8iEKosqjMmH9CL03-27" value="Requests Operands data" style="edgeLabel;html=1;align=center;verticalAlign=middle;resizable=0;points=[];" vertex="1" connectable="0" parent="YFdR8iEKosqjMmH9CL03-25">
          <mxGeometry x="-0.5308" y="1" relative="1" as="geometry">
            <mxPoint as="offset" />
          </mxGeometry>
        </mxCell>
        <mxCell id="YFdR8iEKosqjMmH9CL03-4" value="Test if three registers rs,rt and rd provided" style="rhombus;whiteSpace=wrap;html=1;shadow=0;fontFamily=Helvetica;fontSize=12;align=center;strokeWidth=1;spacing=6;spacingTop=-4;" vertex="1" parent="WIyWlLk6GJQsqaUBKTNV-1">
          <mxGeometry x="577" y="280" width="100" height="80" as="geometry" />
        </mxCell>
        <mxCell id="YFdR8iEKosqjMmH9CL03-19" style="edgeStyle=orthogonalEdgeStyle;rounded=0;orthogonalLoop=1;jettySize=auto;html=1;exitX=0;exitY=0.5;exitDx=0;exitDy=0;entryX=1;entryY=0.5;entryDx=0;entryDy=0;" edge="1" parent="WIyWlLk6GJQsqaUBKTNV-1" source="YFdR8iEKosqjMmH9CL03-7" target="WIyWlLk6GJQsqaUBKTNV-12">
          <mxGeometry relative="1" as="geometry" />
        </mxCell>
        <mxCell id="YFdR8iEKosqjMmH9CL03-20" value="No" style="edgeLabel;html=1;align=center;verticalAlign=middle;resizable=0;points=[];" vertex="1" connectable="0" parent="YFdR8iEKosqjMmH9CL03-19">
          <mxGeometry x="-0.05" y="4" relative="1" as="geometry">
            <mxPoint as="offset" />
          </mxGeometry>
        </mxCell>
        <mxCell id="YFdR8iEKosqjMmH9CL03-31" style="edgeStyle=orthogonalEdgeStyle;rounded=0;orthogonalLoop=1;jettySize=auto;html=1;exitX=0.5;exitY=1;exitDx=0;exitDy=0;entryX=0;entryY=0.5;entryDx=0;entryDy=0;" edge="1" parent="WIyWlLk6GJQsqaUBKTNV-1" source="YFdR8iEKosqjMmH9CL03-7" target="WIyWlLk6GJQsqaUBKTNV-11">
          <mxGeometry relative="1" as="geometry" />
        </mxCell>
        <mxCell id="YFdR8iEKosqjMmH9CL03-32" value="Requests Address and Operands" style="edgeLabel;html=1;align=center;verticalAlign=middle;resizable=0;points=[];" vertex="1" connectable="0" parent="YFdR8iEKosqjMmH9CL03-31">
          <mxGeometry x="-0.8054" y="-1" relative="1" as="geometry">
            <mxPoint as="offset" />
          </mxGeometry>
        </mxCell>
        <mxCell id="YFdR8iEKosqjMmH9CL03-7" value="Test if&amp;nbsp; rs &amp;amp; rd address provided" style="rhombus;whiteSpace=wrap;html=1;shadow=0;fontFamily=Helvetica;fontSize=12;align=center;strokeWidth=1;spacing=6;spacingTop=-4;" vertex="1" parent="WIyWlLk6GJQsqaUBKTNV-1">
          <mxGeometry x="247" y="280" width="120" height="80" as="geometry" />
        </mxCell>
        <mxCell id="YFdR8iEKosqjMmH9CL03-15" value="Show Syntax Error" style="rounded=1;whiteSpace=wrap;html=1;fontSize=12;glass=0;strokeWidth=1;shadow=0;" vertex="1" parent="WIyWlLk6GJQsqaUBKTNV-1">
          <mxGeometry x="707" y="300" width="120" height="40" as="geometry" />
        </mxCell>
        <mxCell id="YFdR8iEKosqjMmH9CL03-21" value="Show Syntax Error" style="rounded=1;whiteSpace=wrap;html=1;fontSize=12;glass=0;strokeWidth=1;shadow=0;" vertex="1" parent="WIyWlLk6GJQsqaUBKTNV-1">
          <mxGeometry x="707" y="370" width="120" height="40" as="geometry" />
        </mxCell>
        <mxCell id="YFdR8iEKosqjMmH9CL03-43" style="edgeStyle=orthogonalEdgeStyle;rounded=0;orthogonalLoop=1;jettySize=auto;html=1;entryX=1;entryY=0.5;entryDx=0;entryDy=0;" edge="1" parent="WIyWlLk6GJQsqaUBKTNV-1" target="YFdR8iEKosqjMmH9CL03-42">
          <mxGeometry relative="1" as="geometry">
            <mxPoint x="627" y="500" as="sourcePoint" />
            <Array as="points">
              <mxPoint x="627" y="560" />
            </Array>
          </mxGeometry>
        </mxCell>
        <mxCell id="YFdR8iEKosqjMmH9CL03-44" value="Operation" style="edgeLabel;html=1;align=center;verticalAlign=middle;resizable=0;points=[];" vertex="1" connectable="0" parent="YFdR8iEKosqjMmH9CL03-43">
          <mxGeometry x="0.0516" relative="1" as="geometry">
            <mxPoint as="offset" />
          </mxGeometry>
        </mxCell>
        <mxCell id="YFdR8iEKosqjMmH9CL03-57" style="edgeStyle=orthogonalEdgeStyle;rounded=0;orthogonalLoop=1;jettySize=auto;html=1;exitX=1;exitY=0.5;exitDx=0;exitDy=0;" edge="1" parent="WIyWlLk6GJQsqaUBKTNV-1">
          <mxGeometry relative="1" as="geometry">
            <mxPoint x="147" y="600" as="targetPoint" />
            <mxPoint x="777" y="600" as="sourcePoint" />
            <Array as="points">
              <mxPoint x="797" y="600" />
              <mxPoint x="797" y="710" />
              <mxPoint x="147" y="710" />
            </Array>
          </mxGeometry>
        </mxCell>
        <mxCell id="YFdR8iEKosqjMmH9CL03-58" value="Read or Write Data&amp;nbsp; from or To memory" style="edgeLabel;html=1;align=center;verticalAlign=middle;resizable=0;points=[];" vertex="1" connectable="0" parent="YFdR8iEKosqjMmH9CL03-57">
          <mxGeometry x="-0.0364" y="-3" relative="1" as="geometry">
            <mxPoint as="offset" />
          </mxGeometry>
        </mxCell>
        <mxCell id="YFdR8iEKosqjMmH9CL03-35" value="Acccess Memory Address and Data Registers for Read/Write" style="rounded=1;whiteSpace=wrap;html=1;fontSize=12;glass=0;strokeWidth=1;shadow=0;" vertex="1" parent="WIyWlLk6GJQsqaUBKTNV-1">
          <mxGeometry x="587" y="585" width="190" height="40" as="geometry" />
        </mxCell>
        <mxCell id="YFdR8iEKosqjMmH9CL03-36" value="" style="endArrow=classic;html=1;rounded=0;" edge="1" parent="WIyWlLk6GJQsqaUBKTNV-1" target="YFdR8iEKosqjMmH9CL03-42">
          <mxGeometry width="50" height="50" relative="1" as="geometry">
            <mxPoint x="307" y="420" as="sourcePoint" />
            <mxPoint x="527" y="410" as="targetPoint" />
            <Array as="points">
              <mxPoint x="307" y="560" />
            </Array>
          </mxGeometry>
        </mxCell>
        <mxCell id="YFdR8iEKosqjMmH9CL03-37" value="Operation" style="edgeLabel;html=1;align=center;verticalAlign=middle;resizable=0;points=[];" vertex="1" connectable="0" parent="YFdR8iEKosqjMmH9CL03-36">
          <mxGeometry x="-0.0696" y="1" relative="1" as="geometry">
            <mxPoint as="offset" />
          </mxGeometry>
        </mxCell>
        <mxCell id="YFdR8iEKosqjMmH9CL03-38" value="" style="endArrow=classic;html=1;rounded=0;entryX=0.5;entryY=0;entryDx=0;entryDy=0;" edge="1" parent="WIyWlLk6GJQsqaUBKTNV-1" target="YFdR8iEKosqjMmH9CL03-42">
          <mxGeometry width="50" height="50" relative="1" as="geometry">
            <mxPoint x="457" y="450" as="sourcePoint" />
            <mxPoint x="527" y="410" as="targetPoint" />
          </mxGeometry>
        </mxCell>
        <mxCell id="YFdR8iEKosqjMmH9CL03-39" value="Operation" style="edgeLabel;html=1;align=center;verticalAlign=middle;resizable=0;points=[];" vertex="1" connectable="0" parent="YFdR8iEKosqjMmH9CL03-38">
          <mxGeometry x="-0.3556" y="1" relative="1" as="geometry">
            <mxPoint as="offset" />
          </mxGeometry>
        </mxCell>
        <mxCell id="YFdR8iEKosqjMmH9CL03-45" style="edgeStyle=orthogonalEdgeStyle;rounded=0;orthogonalLoop=1;jettySize=auto;html=1;exitX=1;exitY=1;exitDx=0;exitDy=0;" edge="1" parent="WIyWlLk6GJQsqaUBKTNV-1" source="YFdR8iEKosqjMmH9CL03-42" target="YFdR8iEKosqjMmH9CL03-35">
          <mxGeometry relative="1" as="geometry">
            <Array as="points">
              <mxPoint x="487" y="580" />
              <mxPoint x="487" y="605" />
            </Array>
          </mxGeometry>
        </mxCell>
        <mxCell id="YFdR8iEKosqjMmH9CL03-48" value="Text" style="edgeLabel;html=1;align=center;verticalAlign=middle;resizable=0;points=[];" vertex="1" connectable="0" parent="YFdR8iEKosqjMmH9CL03-45">
          <mxGeometry x="0.2462" relative="1" as="geometry">
            <mxPoint as="offset" />
          </mxGeometry>
        </mxCell>
        <mxCell id="YFdR8iEKosqjMmH9CL03-56" value="I-Type" style="edgeLabel;html=1;align=center;verticalAlign=middle;resizable=0;points=[];" vertex="1" connectable="0" parent="YFdR8iEKosqjMmH9CL03-45">
          <mxGeometry x="0.3077" y="-1" relative="1" as="geometry">
            <mxPoint as="offset" />
          </mxGeometry>
        </mxCell>
        <mxCell id="YFdR8iEKosqjMmH9CL03-50" style="edgeStyle=orthogonalEdgeStyle;rounded=0;orthogonalLoop=1;jettySize=auto;html=1;exitX=0;exitY=1;exitDx=0;exitDy=0;" edge="1" parent="WIyWlLk6GJQsqaUBKTNV-1" source="YFdR8iEKosqjMmH9CL03-42" target="YFdR8iEKosqjMmH9CL03-49">
          <mxGeometry relative="1" as="geometry">
            <Array as="points">
              <mxPoint x="432" y="600" />
            </Array>
          </mxGeometry>
        </mxCell>
        <mxCell id="YFdR8iEKosqjMmH9CL03-53" value="R-Type" style="edgeLabel;html=1;align=center;verticalAlign=middle;resizable=0;points=[];" vertex="1" connectable="0" parent="YFdR8iEKosqjMmH9CL03-50">
          <mxGeometry x="-0.2632" y="-1" relative="1" as="geometry">
            <mxPoint as="offset" />
          </mxGeometry>
        </mxCell>
        <mxCell id="YFdR8iEKosqjMmH9CL03-60" style="edgeStyle=orthogonalEdgeStyle;rounded=0;orthogonalLoop=1;jettySize=auto;html=1;exitX=0.5;exitY=1;exitDx=0;exitDy=0;" edge="1" parent="WIyWlLk6GJQsqaUBKTNV-1" source="YFdR8iEKosqjMmH9CL03-42" target="YFdR8iEKosqjMmH9CL03-59">
          <mxGeometry relative="1" as="geometry" />
        </mxCell>
        <mxCell id="YFdR8iEKosqjMmH9CL03-42" value="ALU" style="rhombus;whiteSpace=wrap;html=1;shadow=0;fontFamily=Helvetica;fontSize=12;align=center;strokeWidth=1;spacing=6;spacingTop=-4;" vertex="1" parent="WIyWlLk6GJQsqaUBKTNV-1">
          <mxGeometry x="407" y="520" width="100" height="80" as="geometry" />
        </mxCell>
        <mxCell id="YFdR8iEKosqjMmH9CL03-54" style="edgeStyle=orthogonalEdgeStyle;rounded=0;orthogonalLoop=1;jettySize=auto;html=1;exitX=0;exitY=0.5;exitDx=0;exitDy=0;entryX=0.25;entryY=1;entryDx=0;entryDy=0;" edge="1" parent="WIyWlLk6GJQsqaUBKTNV-1" source="YFdR8iEKosqjMmH9CL03-49" target="WIyWlLk6GJQsqaUBKTNV-11">
          <mxGeometry relative="1" as="geometry" />
        </mxCell>
        <mxCell id="YFdR8iEKosqjMmH9CL03-55" value="Writes back&amp;nbsp;" style="edgeLabel;html=1;align=center;verticalAlign=middle;resizable=0;points=[];" vertex="1" connectable="0" parent="YFdR8iEKosqjMmH9CL03-54">
          <mxGeometry x="-0.36" y="-1" relative="1" as="geometry">
            <mxPoint as="offset" />
          </mxGeometry>
        </mxCell>
        <mxCell id="YFdR8iEKosqjMmH9CL03-49" value="Perform Calculation" style="rounded=1;whiteSpace=wrap;html=1;fontSize=12;glass=0;strokeWidth=1;shadow=0;" vertex="1" parent="WIyWlLk6GJQsqaUBKTNV-1">
          <mxGeometry x="237" y="585" width="120" height="40" as="geometry" />
        </mxCell>
        <mxCell id="YFdR8iEKosqjMmH9CL03-59" value="Goto to an address in Memory&amp;nbsp;" style="rounded=1;whiteSpace=wrap;html=1;fontSize=12;glass=0;strokeWidth=1;shadow=0;" vertex="1" parent="WIyWlLk6GJQsqaUBKTNV-1">
          <mxGeometry x="397" y="640" width="120" height="40" as="geometry" />
        </mxCell>
        <mxCell id="YFdR8iEKosqjMmH9CL03-62" value="" style="endArrow=classic;html=1;rounded=0;entryX=0;entryY=0.5;entryDx=0;entryDy=0;" edge="1" parent="WIyWlLk6GJQsqaUBKTNV-1" target="WIyWlLk6GJQsqaUBKTNV-3">
          <mxGeometry width="50" height="50" relative="1" as="geometry">
            <mxPoint x="30" y="710" as="sourcePoint" />
            <mxPoint x="30" y="110" as="targetPoint" />
            <Array as="points">
              <mxPoint x="30" y="590" />
              <mxPoint x="30" y="130" />
            </Array>
          </mxGeometry>
        </mxCell>
        <mxCell id="YFdR8iEKosqjMmH9CL03-64" value="Increment &lt;br&gt;Program&lt;br&gt;&amp;nbsp;Counter" style="edgeLabel;html=1;align=center;verticalAlign=middle;resizable=0;points=[];" vertex="1" connectable="0" parent="YFdR8iEKosqjMmH9CL03-62">
          <mxGeometry x="-0.2161" y="-1" relative="1" as="geometry">
            <mxPoint as="offset" />
          </mxGeometry>
        </mxCell>
        <mxCell id="YFdR8iEKosqjMmH9CL03-65" value="" style="endArrow=classic;html=1;rounded=0;" edge="1" parent="WIyWlLk6GJQsqaUBKTNV-1">
          <mxGeometry width="50" height="50" relative="1" as="geometry">
            <mxPoint x="150" y="710" as="sourcePoint" />
            <mxPoint x="30" y="710" as="targetPoint" />
          </mxGeometry>
        </mxCell>
        <mxCell id="YFdR8iEKosqjMmH9CL03-66" value="" style="endArrow=classic;html=1;rounded=0;" edge="1" parent="WIyWlLk6GJQsqaUBKTNV-1">
          <mxGeometry width="50" height="50" relative="1" as="geometry">
            <mxPoint x="150" y="604.5" as="sourcePoint" />
            <mxPoint x="30" y="604.5" as="targetPoint" />
          </mxGeometry>
        </mxCell>
        <mxCell id="YFdR8iEKosqjMmH9CL03-67" value="" style="endArrow=classic;html=1;rounded=0;exitX=0;exitY=0.5;exitDx=0;exitDy=0;" edge="1" parent="WIyWlLk6GJQsqaUBKTNV-1" source="YFdR8iEKosqjMmH9CL03-59">
          <mxGeometry width="50" height="50" relative="1" as="geometry">
            <mxPoint x="67" y="675" as="sourcePoint" />
            <mxPoint x="30" y="660" as="targetPoint" />
          </mxGeometry>
        </mxCell>
        <mxCell id="YFdR8iEKosqjMmH9CL03-68" value="Increment&lt;br&gt;Program&lt;br&gt;&amp;nbsp;Counter" style="edgeLabel;html=1;align=center;verticalAlign=middle;resizable=0;points=[];" vertex="1" connectable="0" parent="YFdR8iEKosqjMmH9CL03-67">
          <mxGeometry x="-0.1172" y="-3" relative="1" as="geometry">
            <mxPoint as="offset" />
          </mxGeometry>
        </mxCell>
      </root>
    </mxGraphModel>
  </diagram>
</mxfile>
